# xmcd
#
# Track frame offsets:
#	183
#	12493
#	25018
#	36433
#	47178
#	58420
#	70200
#	81543
#	92330
#	106643
#
# Disc length: 1586 seconds
#
# Revision: 5
# Processed by: cddbd v1.5.2PL0 Copyright (c) Steve Scherf et al.
# Submitted via: audiograbber 1.83.01
#
DISCID=8106300a
DTITLE=Various Artist - Ten Best Series - Country Hits Of The 50's
DYEAR=1990
DGENRE=Oldies
TTITLE0=Hank Thompson - The Wild Side Of Life
TTITLE1=Skeets McDonald - Don't Let The Stars Get In Your Eyes
TTITLE2=Jean Shepard and Ferlin Husky - A Dear John Letter
TTITLE3=Faron Young - If You Ain't Lovin' (You Ain't Livin')
TTITLE4=Tommy Collins - You Better Not Do That 
TTITLE5=Tennessee Ernie Ford  - Sixteen Tons
TTITLE6=Sonny James - Young Love 
TTITLE7=Ferlin Husky - Gone
TTITLE8=Simon Crum - Country Music's Here To Stay
TTITLE9=Louvin Brothers - My Baby's Gone
EXTD=
EXTT0=
EXTT1=
EXTT2=
EXTT3=
EXTT4=
EXTT5=
EXTT6=
EXTT7=
EXTT8=
EXTT9=
PLAYORDER=
